<?xml version="1.0" standalone="no"?>
<!DOCTYPE svg PUBLIC "-//W3C//DTD SVG 20010904//EN"
 "http://www.w3.org/TR/2001/REC-SVG-20010904/DTD/svg10.dtd">
<svg version="1.0" xmlns="http://www.w3.org/2000/svg"
 width="105.000000pt" height="105.000000pt" viewBox="0 0 105.000000 105.000000"
 preserveAspectRatio="xMidYMid meet">

<g transform="translate(0.000000,105.000000) scale(0.100000,-0.100000)"
fill="#ffffff" stroke="none">
<path d="M485 974 c-11 -2 -43 -9 -72 -15 l-52 -10 66 -35 c231 -120 315 -295
206 -424 l-25 -30 151 0 c82 0 152 -4 156 -9 7 -12 24 -8 -397 -97 -252 -53
-368 -82 -368 -91 0 -24 109 -120 172 -151 230 -113 502 -23 613 202 67 136
67 274 0 413 -54 110 -166 202 -280 231 -50 13 -143 21 -170 16z"/>
<path d="M251 883 c-63 -46 -122 -124 -152 -201 -31 -78 -33 -242 -3 -317 19
-47 22 -50 55 -48 85 5 191 79 234 164 45 89 53 215 19 312 -17 49 -71 127
-88 127 -7 0 -36 -17 -65 -37z"/>
</g>
</svg>
