<svg id="svg" version="1.1" xmlns="http://www.w3.org/2000/svg" xmlns:xlink="http://www.w3.org/1999/xlink" width="400" height="371.6" viewBox="0, 0, 400,371.6"><g id="svgg"><path id="path0" d="M183.457 31.592 C 174.944 32.531,170.606 33.313,159.665 35.877 C 156.762 36.557,141.608 41.545,141.170 41.964 C 140.899 42.224,149.897 46.349,151.573 46.734 C 152.029 46.839,153.702 46.495,155.291 45.971 C 189.311 34.743,233.722 37.870,264.033 53.628 C 267.278 55.314,268.759 56.496,267.007 56.000 C 258.297 53.531,220.536 56.166,204.031 60.395 C 202.803 60.709,201.478 60.967,201.085 60.967 C 200.693 60.967,200.372 61.101,200.372 61.265 C 200.372 61.429,199.577 61.749,198.606 61.976 C 197.635 62.203,195.251 62.826,193.309 63.361 C 187.549 64.948,187.233 65.019,186.823 64.815 C 185.804 64.307,188.765 66.479,193.309 69.573 C 231.561 95.613,250.923 122.617,251.941 151.351 C 252.640 171.072,245.725 186.776,229.250 202.881 L 223.830 208.178 277.139 208.178 C 317.088 208.178,330.688 208.288,331.404 208.614 C 332.622 209.169,332.974 210.514,332.207 211.685 C 331.544 212.696,331.241 212.821,327.653 213.548 C 320.474 215.005,317.346 215.656,314.126 216.363 C 310.625 217.132,300.876 219.191,294.796 220.445 C 293.058 220.803,288.792 221.714,285.316 222.468 C 281.840 223.222,277.323 224.181,275.279 224.597 C 273.234 225.014,270.558 225.573,269.331 225.840 C 266.461 226.463,253.700 229.158,248.885 230.157 C 246.840 230.581,244.164 231.149,242.937 231.419 C 240.572 231.938,237.217 232.635,227.881 234.545 C 224.712 235.193,219.526 236.289,216.357 236.980 C 213.188 237.671,208.420 238.683,205.762 239.230 C 194.756 241.495,188.225 242.869,172.119 246.308 C 168.745 247.029,163.141 248.209,159.665 248.932 C 150.091 250.922,142.216 252.571,134.201 254.265 C 130.214 255.107,125.781 256.033,124.349 256.323 C 122.918 256.612,120.158 257.192,118.216 257.611 C 116.273 258.030,113.513 258.618,112.082 258.917 C 110.651 259.217,107.472 259.890,105.019 260.413 C 102.565 260.936,99.387 261.603,97.955 261.895 C 96.524 262.186,93.680 262.783,91.636 263.221 C 83.344 264.996,80.935 265.494,74.349 266.795 C 66.199 268.406,66.666 268.131,68.144 270.450 C 92.081 308.006,135.023 334.761,180.290 340.323 C 274.615 351.913,357.041 279.973,357.041 186.059 C 357.041 155.468,349.278 128.684,332.959 102.974 C 318.291 79.865,296.668 60.306,272.119 47.944 C 267.927 45.833,262.156 43.123,261.852 43.123 C 261.733 43.123,261.109 42.878,260.465 42.579 C 258.103 41.482,250.830 38.920,244.796 37.059 C 227.357 31.681,202.627 29.477,183.457 31.592 M125.465 49.319 C 97.612 64.916,77.974 84.155,62.728 110.781 C 60.751 114.234,56.375 123.316,54.847 127.138 C 53.906 129.489,52.988 131.747,52.805 132.156 C 47.603 143.793,43.113 168.855,43.126 186.182 C 43.140 203.577,47.473 227.627,52.815 239.963 C 52.992 240.372,53.903 242.630,54.838 244.981 C 57.130 250.741,61.332 259.108,61.932 259.108 C 62.199 259.108,63.303 258.929,64.387 258.710 C 116.544 248.165,146.430 224.682,160.156 183.457 C 169.660 154.913,170.025 124.905,161.204 97.398 C 158.725 89.668,154.453 80.149,153.608 80.474 C 153.248 80.612,153.174 80.434,153.339 79.830 C 153.557 79.031,153.548 79.028,153.114 79.740 C 152.523 80.712,151.296 81.784,150.776 81.784 C 150.549 81.784,149.948 82.166,149.439 82.632 C 148.930 83.098,147.371 84.060,145.975 84.770 C 144.579 85.479,143.023 86.436,142.517 86.896 C 142.011 87.356,141.439 87.732,141.245 87.732 C 141.051 87.732,140.589 88.025,140.217 88.383 C 139.846 88.741,138.968 89.360,138.266 89.758 C 137.563 90.157,136.665 90.784,136.268 91.152 C 135.872 91.520,135.420 91.822,135.265 91.822 C 135.110 91.822,134.571 92.203,134.067 92.670 C 133.563 93.137,132.602 93.931,131.931 94.436 C 129.267 96.439,125.376 99.621,124.923 100.166 C 124.660 100.484,124.215 100.743,123.935 100.743 C 123.655 100.743,123.217 101.078,122.962 101.487 C 122.707 101.896,122.287 102.230,122.030 102.230 C 121.772 102.230,121.561 102.410,121.561 102.629 C 121.561 103.120,121.172 103.491,118.587 105.463 C 116.388 107.140,101.859 121.921,101.859 122.481 C 101.859 122.570,101.482 123.061,101.022 123.572 C 98.672 126.181,98.141 126.813,98.141 126.999 C 98.141 127.111,96.798 128.903,95.155 130.981 C 91.586 135.496,92.013 134.933,89.856 137.965 C 88.893 139.320,88.104 140.531,88.104 140.656 C 88.104 140.859,87.544 141.608,86.431 142.891 C 86.227 143.127,85.727 143.986,85.322 144.801 C 84.674 146.102,83.852 147.432,81.333 151.261 C 80.631 152.327,79.182 155.225,79.182 155.562 C 79.182 155.679,78.456 156.985,77.568 158.464 C 76.680 159.942,75.530 162.072,75.013 163.197 C 74.496 164.322,73.236 166.998,72.214 169.145 C 71.193 171.292,70.142 173.717,69.879 174.535 C 69.617 175.353,69.093 176.731,68.716 177.598 C 68.338 178.465,68.030 179.393,68.030 179.661 C 68.030 179.929,67.875 180.308,67.687 180.502 C 67.194 181.008,64.611 188.920,63.019 194.796 C 62.272 197.556,61.592 200.026,61.509 200.284 C 60.794 202.506,58.632 213.500,57.777 219.264 C 57.055 224.132,56.948 224.126,55.654 219.145 C 39.305 156.258,71.987 86.156,131.918 55.558 L 135.397 53.782 132.290 50.693 C 128.670 47.095,129.234 47.208,125.465 49.319 " stroke="none" fill="#ce1811" fill-rule="evenodd"></path><path id="path1" d="M0.000 185.874 L 0.000 371.747 200.000 371.747 L 400.000 371.747 400.000 185.874 L 400.000 0.000 200.000 0.000 L 0.000 0.000 0.000 185.874 M211.152 30.670 C 219.193 31.284,219.049 31.268,225.836 32.341 C 237.044 34.113,252.467 38.399,259.294 41.639 C 259.703 41.833,260.539 42.171,261.152 42.390 C 277.079 48.068,298.368 62.554,313.389 77.932 C 383.461 149.671,368.285 266.718,282.111 319.159 C 238.848 345.488,185.908 349.139,137.552 329.129 C 113.402 319.136,89.333 300.093,73.013 278.067 C 69.855 273.804,66.384 268.437,66.628 268.193 C 66.779 268.041,73.179 266.588,78.810 265.426 C 89.175 263.287,97.840 261.470,104.414 260.056 C 108.784 259.117,114.389 257.937,116.868 257.434 C 119.347 256.931,122.881 256.194,124.721 255.795 C 132.516 254.107,142.763 251.970,145.353 251.494 C 146.887 251.212,149.647 250.625,151.487 250.189 C 153.327 249.754,159.600 248.414,165.428 247.213 C 174.523 245.338,180.486 244.089,194.610 241.102 C 196.041 240.800,200.307 239.884,204.089 239.068 C 207.872 238.252,213.978 236.979,217.658 236.239 C 221.338 235.500,226.106 234.495,228.253 234.007 C 230.400 233.520,235.167 232.519,238.848 231.783 C 242.528 231.048,247.463 230.021,249.814 229.502 C 254.737 228.415,264.740 226.312,269.888 225.283 C 271.831 224.894,275.009 224.223,276.952 223.792 C 280.371 223.033,291.902 220.606,297.212 219.529 C 298.643 219.238,301.403 218.646,303.346 218.213 C 305.288 217.780,311.310 216.513,316.729 215.398 C 331.359 212.386,331.331 212.393,331.874 211.650 C 332.582 210.683,332.307 209.574,331.227 209.033 C 330.496 208.667,318.865 208.566,276.796 208.558 C 247.370 208.552,223.206 208.460,223.098 208.352 C 222.990 208.244,223.813 207.385,224.927 206.442 C 243.098 191.071,252.559 171.137,251.512 150.430 C 249.791 116.412,220.428 82.888,168.030 55.120 C 166.087 54.091,162.825 52.371,160.781 51.299 C 156.695 49.157,156.027 48.699,156.989 48.699 C 157.336 48.699,157.621 48.567,157.621 48.407 C 157.621 48.246,157.914 48.092,158.271 48.063 C 158.629 48.035,160.678 47.486,162.825 46.844 C 164.972 46.202,166.980 45.618,167.286 45.546 C 167.593 45.473,169.433 45.060,171.375 44.628 C 173.318 44.196,175.409 43.686,176.022 43.494 C 178.055 42.861,185.628 41.688,189.591 41.394 C 192.706 41.162,193.194 41.055,192.007 40.865 C 190.151 40.567,198.669 40.321,205.204 40.484 C 208.869 40.576,209.759 40.504,209.416 40.144 C 208.868 39.569,189.084 39.842,184.572 40.486 C 182.937 40.720,179.842 41.146,177.695 41.434 C 175.548 41.721,172.621 42.209,171.190 42.518 C 164.638 43.933,158.754 45.412,154.833 46.628 C 152.078 47.482,151.587 47.386,145.830 44.873 C 139.645 42.172,139.676 42.209,142.565 41.024 C 162.495 32.848,188.421 28.934,211.152 30.670 M213.290 40.783 C 213.750 40.871,214.503 40.871,214.963 40.783 C 215.423 40.694,215.046 40.622,214.126 40.622 C 213.206 40.622,212.830 40.694,213.290 40.783 M188.018 41.158 C 187.459 41.243,186.455 41.244,185.787 41.162 C 185.119 41.079,185.576 41.009,186.803 41.007 C 188.030 41.005,188.576 41.073,188.018 41.158 M218.127 41.155 C 218.589 41.244,219.259 41.241,219.614 41.148 C 219.969 41.055,219.591 40.982,218.773 40.986 C 217.955 40.990,217.665 41.066,218.127 41.155 M221.654 41.520 C 222.012 41.614,222.598 41.614,222.955 41.520 C 223.313 41.427,223.020 41.350,222.305 41.350 C 221.589 41.350,221.296 41.427,221.654 41.520 M132.477 50.223 C 135.357 52.924,136.458 54.647,135.304 54.647 C 134.711 54.647,128.430 57.841,124.907 59.933 C 93.065 78.847,69.880 107.831,59.105 142.193 C 58.656 143.625,58.139 145.130,57.957 145.539 C 57.407 146.768,55.405 155.943,55.442 157.063 C 55.466 157.787,55.878 156.241,56.977 151.301 C 57.350 149.628,57.584 149.113,57.740 149.628 C 57.863 150.037,57.879 149.744,57.775 148.978 C 57.662 148.136,57.741 147.584,57.976 147.584 C 58.189 147.584,58.368 147.207,58.373 146.747 C 58.377 146.287,58.689 145.509,59.067 145.019 C 59.453 144.516,59.668 143.801,59.558 143.381 C 59.426 142.877,59.502 142.721,59.793 142.901 C 60.174 143.136,60.411 142.457,60.267 141.543 C 60.243 141.389,60.384 141.264,60.580 141.264 C 60.777 141.264,61.124 140.553,61.351 139.684 C 61.577 138.815,62.070 137.435,62.445 136.617 C 63.134 135.114,64.928 131.261,66.684 127.509 C 67.819 125.086,69.618 121.781,70.167 121.109 C 70.382 120.847,71.085 119.628,71.730 118.401 C 73.604 114.835,74.807 112.874,76.349 110.870 C 77.143 109.839,77.802 108.854,77.815 108.680 C 77.827 108.506,78.208 107.965,78.660 107.477 C 79.112 106.989,79.708 106.153,79.983 105.619 C 80.258 105.084,80.761 104.439,81.101 104.184 C 81.440 103.930,82.250 102.857,82.900 101.801 C 83.550 100.744,84.276 99.668,84.513 99.410 C 84.750 99.152,85.613 98.143,86.431 97.169 C 92.043 90.484,101.567 81.043,107.626 76.160 C 109.055 75.009,110.725 73.629,111.338 73.094 C 111.952 72.558,112.663 72.120,112.918 72.119 C 113.174 72.119,113.383 71.952,113.383 71.747 C 113.383 71.543,113.549 71.375,113.752 71.375 C 113.955 71.375,114.533 71.017,115.036 70.579 C 115.540 70.141,117.674 68.647,119.779 67.259 C 121.884 65.871,124.027 64.409,124.542 64.009 C 125.057 63.610,127.064 62.452,129.003 61.435 C 130.942 60.419,133.699 58.900,135.130 58.061 L 137.732 56.534 139.534 58.286 C 148.510 67.014,158.542 85.670,163.065 102.045 C 171.065 131.010,169.177 162.862,157.773 191.341 C 147.270 217.570,126.991 237.536,99.257 248.954 C 88.799 253.259,63.574 260.383,61.524 259.610 C 60.258 259.132,53.490 243.688,49.983 233.271 C 40.555 205.271,40.472 167.046,49.781 139.511 C 50.697 136.802,53.248 129.794,54.242 127.256 C 66.609 95.681,93.584 65.975,125.465 48.824 C 129.227 46.800,128.719 46.699,132.477 50.223 M52.146 182.156 C 52.146 183.076,52.218 183.453,52.307 182.993 C 52.396 182.533,52.396 181.780,52.307 181.320 C 52.218 180.860,52.146 181.236,52.146 182.156 " stroke="none" fill="#f4f4f4" fill-rule="evenodd"></path><path id="path2" d="M197.137 30.760 C 198.936 30.829,201.780 30.828,203.457 30.760 C 205.134 30.691,203.662 30.635,200.186 30.635 C 196.710 30.636,195.338 30.692,197.137 30.760 M186.896 31.117 C 187.356 31.206,188.109 31.206,188.569 31.117 C 189.029 31.029,188.652 30.956,187.732 30.956 C 186.812 30.956,186.436 31.029,186.896 31.117 M211.803 31.117 C 212.263 31.206,213.016 31.206,213.476 31.117 C 213.936 31.029,213.559 30.956,212.639 30.956 C 211.719 30.956,211.343 31.029,211.803 31.117 M183.364 31.483 C 183.722 31.577,184.308 31.577,184.665 31.483 C 185.023 31.390,184.730 31.313,184.015 31.313 C 183.299 31.313,183.007 31.390,183.364 31.483 M215.897 31.490 C 216.359 31.579,217.028 31.575,217.384 31.482 C 217.739 31.389,217.361 31.316,216.543 31.321 C 215.725 31.325,215.434 31.401,215.897 31.490 M196.561 39.310 C 198.453 39.378,201.547 39.378,203.439 39.310 C 205.330 39.243,203.783 39.188,200.000 39.188 C 196.217 39.188,194.670 39.243,196.561 39.310 M185.874 39.797 C 184.835 39.972,185.468 40.004,187.546 39.883 C 189.387 39.775,190.962 39.624,191.047 39.546 C 191.298 39.318,187.690 39.493,185.874 39.797 M210.135 39.672 C 210.700 39.757,211.537 39.755,211.994 39.667 C 212.451 39.579,211.989 39.509,210.967 39.512 C 209.944 39.514,209.570 39.587,210.135 39.672 M213.662 40.039 C 214.122 40.128,214.875 40.128,215.335 40.039 C 215.795 39.951,215.418 39.878,214.498 39.878 C 213.578 39.878,213.202 39.951,213.662 40.039 M231.599 42.751 C 232.110 42.915,232.862 43.049,233.271 43.049 C 233.860 43.049,233.821 42.987,233.086 42.751 C 232.574 42.587,231.822 42.453,231.413 42.453 C 230.824 42.453,230.863 42.515,231.599 42.751 M157.063 45.353 C 156.595 45.555,156.526 45.673,156.877 45.673 C 157.184 45.673,157.770 45.529,158.178 45.353 C 158.647 45.152,158.716 45.034,158.364 45.034 C 158.058 45.034,157.472 45.177,157.063 45.353 M241.822 45.353 C 242.230 45.529,242.816 45.673,243.123 45.673 C 243.474 45.673,243.405 45.555,242.937 45.353 C 242.528 45.177,241.942 45.034,241.636 45.034 C 241.284 45.034,241.353 45.152,241.822 45.353 M246.097 46.654 C 247.794 47.308,248.462 47.298,247.026 46.641 C 246.413 46.360,245.660 46.135,245.353 46.142 C 245.046 46.148,245.381 46.379,246.097 46.654 M249.814 47.893 C 250.121 48.082,250.790 48.349,251.301 48.486 C 251.947 48.659,252.060 48.629,251.673 48.390 C 251.366 48.200,250.697 47.933,250.186 47.797 C 249.540 47.624,249.427 47.653,249.814 47.893 M132.641 51.042 C 134.125 52.535,135.208 53.901,135.048 54.076 C 134.889 54.251,134.985 54.263,135.261 54.103 C 135.703 53.847,130.800 48.327,130.130 48.327 C 130.028 48.327,131.158 49.549,132.641 51.042 M252.447 48.846 C 252.601 48.991,256.610 50.704,258.323 51.356 C 259.781 51.911,258.969 52.100,257.020 51.660 C 249.469 49.954,225.041 48.734,215.799 49.601 C 214.981 49.678,212.639 49.851,210.595 49.986 C 208.550 50.121,205.539 50.478,203.903 50.778 C 202.268 51.079,200.093 51.419,199.071 51.534 C 198.048 51.648,194.786 52.237,191.822 52.842 C 188.857 53.448,185.800 54.040,185.028 54.159 C 184.256 54.278,183.536 54.520,183.426 54.697 C 183.317 54.874,182.829 55.019,182.342 55.019 C 181.855 55.019,181.371 55.158,181.266 55.327 C 181.161 55.497,180.105 55.844,178.920 56.097 C 177.735 56.351,176.237 56.798,175.592 57.091 C 174.946 57.384,174.109 57.520,173.733 57.394 C 173.356 57.267,174.805 58.237,176.952 59.549 C 186.090 65.134,188.001 66.323,189.498 67.351 C 190.367 67.949,191.078 68.356,191.078 68.257 C 191.078 68.158,190.074 67.373,188.848 66.513 C 187.621 65.652,186.617 64.879,186.617 64.794 C 186.617 64.709,186.752 64.723,186.916 64.825 C 187.230 65.019,187.592 64.936,193.309 63.361 C 195.251 62.826,197.635 62.203,198.606 61.976 C 199.577 61.749,200.372 61.429,200.372 61.265 C 200.372 61.101,200.693 60.967,201.085 60.967 C 201.478 60.967,202.803 60.709,204.031 60.395 C 220.536 56.166,258.297 53.531,267.007 56.000 C 268.671 56.471,267.351 55.360,264.405 53.811 C 260.345 51.675,251.602 48.044,252.447 48.846 M145.892 69.483 C 145.081 69.846,143.134 70.922,141.566 71.875 C 139.997 72.827,138.601 73.606,138.463 73.606 C 137.789 73.606,123.037 83.807,122.739 84.480 C 122.670 84.633,122.441 84.758,122.230 84.758 C 121.921 84.758,115.995 89.329,114.277 90.892 C 110.866 93.995,104.258 100.313,102.644 102.014 C 101.497 103.224,100.223 104.562,99.814 104.987 C 99.036 105.798,96.901 108.231,94.292 111.282 C 93.445 112.273,92.481 113.380,92.152 113.740 C 91.822 114.100,91.242 114.920,90.863 115.562 C 90.484 116.204,90.043 116.729,89.883 116.729 C 89.722 116.729,89.591 116.900,89.591 117.108 C 89.591 117.317,88.777 118.530,87.782 119.804 C 85.353 122.913,79.688 131.369,78.775 133.248 C 78.371 134.079,77.714 135.260,77.315 135.874 C 76.915 136.487,76.475 137.240,76.338 137.546 C 76.200 137.853,75.806 138.522,75.463 139.033 C 74.675 140.206,73.271 142.932,71.730 146.283 C 71.072 147.714,69.970 150.098,69.281 151.581 C 68.593 153.065,68.030 154.451,68.030 154.661 C 68.030 154.872,67.760 155.457,67.429 155.961 C 67.099 156.465,66.941 156.877,67.079 156.877 C 67.216 156.877,67.073 157.337,66.761 157.900 C 65.597 159.999,63.737 165.433,61.321 173.792 C 58.463 183.683,55.969 198.639,55.509 208.643 C 55.380 211.454,55.171 213.755,55.044 213.755 C 54.833 213.755,53.892 209.180,53.171 204.647 C 53.009 203.625,52.856 203.226,52.832 203.762 C 52.724 206.172,56.084 222.306,56.873 223.167 C 57.027 223.335,57.433 221.578,57.777 219.264 C 58.632 213.500,60.794 202.506,61.509 200.284 C 61.592 200.026,62.272 197.556,63.019 194.796 C 64.611 188.920,67.194 181.008,67.687 180.502 C 67.875 180.308,68.030 179.929,68.030 179.661 C 68.030 179.393,68.338 178.465,68.716 177.598 C 69.093 176.731,69.617 175.353,69.879 174.535 C 70.142 173.717,71.193 171.292,72.214 169.145 C 73.236 166.998,74.496 164.322,75.013 163.197 C 75.530 162.072,76.680 159.942,77.568 158.464 C 78.456 156.985,79.182 155.679,79.182 155.562 C 79.182 155.225,80.631 152.327,81.333 151.261 C 83.840 147.451,84.674 146.104,85.322 144.815 C 86.041 143.384,86.696 142.429,87.639 141.435 C 87.895 141.166,88.104 140.829,88.104 140.687 C 88.104 140.545,88.893 139.320,89.856 137.965 C 92.013 134.933,91.586 135.496,95.155 130.981 C 96.798 128.903,98.141 127.111,98.141 126.999 C 98.141 126.813,98.672 126.181,101.022 123.572 C 101.482 123.061,101.859 122.570,101.859 122.481 C 101.859 121.921,116.388 107.140,118.587 105.463 C 121.172 103.491,121.561 103.120,121.561 102.629 C 121.561 102.410,121.772 102.230,122.030 102.230 C 122.287 102.230,122.707 101.896,122.962 101.487 C 123.217 101.078,123.655 100.743,123.935 100.743 C 124.215 100.743,124.660 100.484,124.923 100.166 C 125.389 99.605,129.449 96.292,131.961 94.424 C 132.648 93.913,133.475 93.228,133.799 92.902 C 134.122 92.576,134.930 91.996,135.595 91.614 C 136.259 91.231,136.803 90.825,136.803 90.711 C 136.803 90.597,137.426 90.173,138.188 89.769 C 138.950 89.364,139.870 88.741,140.233 88.383 C 140.595 88.025,141.051 87.732,141.245 87.732 C 141.439 87.732,142.011 87.356,142.517 86.896 C 143.023 86.436,144.579 85.479,145.975 84.770 C 147.371 84.060,148.930 83.098,149.439 82.632 C 149.948 82.166,150.549 81.784,150.776 81.784 C 151.296 81.784,152.523 80.712,153.114 79.740 C 153.548 79.028,153.557 79.031,153.339 79.830 C 153.164 80.472,153.240 80.615,153.671 80.450 C 154.118 80.278,154.149 80.057,153.827 79.348 C 153.605 78.861,153.254 78.566,153.048 78.694 C 152.832 78.827,152.788 78.739,152.945 78.485 C 153.243 78.004,152.201 76.074,149.270 71.679 L 147.366 68.824 145.892 69.483 M93.849 71.468 L 92.379 73.048 93.959 71.579 C 95.428 70.212,95.710 69.888,95.429 69.888 C 95.368 69.888,94.657 70.599,93.849 71.468 M308.922 73.722 C 308.922 73.786,309.466 74.330,310.130 74.930 L 311.338 76.022 310.246 74.814 C 309.229 73.688,308.922 73.435,308.922 73.722 M88.104 76.766 C 86.581 78.299,85.418 79.554,85.520 79.554 C 85.623 79.554,86.953 78.299,88.476 76.766 C 89.999 75.232,91.162 73.978,91.059 73.978 C 90.957 73.978,89.627 75.232,88.104 76.766 M102.393 75.558 L 101.301 76.766 102.509 75.674 C 103.635 74.656,103.888 74.349,103.601 74.349 C 103.537 74.349,102.993 74.893,102.393 75.558 M98.313 79.275 L 96.468 81.227 98.420 79.382 C 100.234 77.668,100.542 77.323,100.265 77.323 C 100.206 77.323,99.328 78.202,98.313 79.275 M90.878 86.710 L 89.033 88.662 90.985 86.817 C 92.799 85.103,93.107 84.758,92.830 84.758 C 92.771 84.758,91.893 85.637,90.878 86.710 M216.543 87.732 C 217.341 88.550,218.078 89.219,218.181 89.219 C 218.283 89.219,217.713 88.550,216.914 87.732 C 216.116 86.914,215.379 86.245,215.277 86.245 C 215.174 86.245,215.744 86.914,216.543 87.732 M86.969 90.985 L 85.688 92.379 87.082 91.098 C 88.379 89.906,88.647 89.591,88.363 89.591 C 88.301 89.591,87.673 90.218,86.969 90.985 M220.074 90.809 C 220.074 90.865,221.371 92.161,222.955 93.690 L 225.836 96.468 223.058 93.587 C 220.477 90.912,220.074 90.537,220.074 90.809 M227.881 99.071 C 228.575 99.786,229.226 100.372,229.328 100.372 C 229.430 100.372,228.946 99.786,228.253 99.071 C 227.559 98.355,226.908 97.770,226.806 97.770 C 226.704 97.770,227.187 98.355,227.881 99.071 M59.665 115.985 C 59.348 116.599,59.172 117.100,59.275 117.100 C 59.377 117.100,59.720 116.599,60.037 115.985 C 60.354 115.372,60.530 114.870,60.428 114.870 C 60.326 114.870,59.983 115.372,59.665 115.985 M167.016 126.022 C 167.016 126.942,167.088 127.319,167.177 126.859 C 167.265 126.399,167.265 125.646,167.177 125.186 C 167.088 124.726,167.016 125.102,167.016 126.022 M167.372 129.740 C 167.372 130.455,167.449 130.748,167.543 130.390 C 167.636 130.033,167.636 129.447,167.543 129.089 C 167.449 128.731,167.372 129.024,167.372 129.740 M61.380 133.499 C 61.151 134.156,61.028 134.758,61.108 134.838 C 61.187 134.917,61.440 134.445,61.669 133.788 C 61.898 133.131,62.020 132.528,61.941 132.449 C 61.861 132.369,61.609 132.842,61.380 133.499 M60.264 136.473 C 60.035 137.130,59.913 137.732,59.993 137.812 C 60.072 137.891,60.324 137.419,60.553 136.762 C 60.783 136.105,60.905 135.502,60.825 135.423 C 60.746 135.343,60.493 135.816,60.264 136.473 M167.372 146.840 C 167.372 147.556,167.449 147.849,167.543 147.491 C 167.636 147.133,167.636 146.547,167.543 146.190 C 167.449 145.832,167.372 146.125,167.372 146.840 M167.021 150.743 C 167.024 151.766,167.096 152.140,167.181 151.575 C 167.267 151.010,167.264 150.173,167.176 149.716 C 167.088 149.259,167.018 149.721,167.021 150.743 M251.759 158.364 C 251.759 159.080,251.836 159.373,251.929 159.015 C 252.023 158.657,252.023 158.072,251.929 157.714 C 251.836 157.356,251.759 157.649,251.759 158.364 M53.246 164.684 C 53.246 165.400,53.323 165.692,53.416 165.335 C 53.510 164.977,53.510 164.391,53.416 164.033 C 53.323 163.676,53.246 163.968,53.246 164.684 M43.581 172.119 C 43.581 172.835,43.657 173.127,43.751 172.770 C 43.844 172.412,43.844 171.826,43.751 171.468 C 43.657 171.111,43.581 171.403,43.581 172.119 M43.242 176.952 C 43.242 178.281,43.309 178.824,43.392 178.160 C 43.474 177.495,43.474 176.408,43.392 175.743 C 43.309 175.079,43.242 175.623,43.242 176.952 M356.989 177.323 C 356.989 178.448,357.058 178.908,357.144 178.346 C 357.229 177.783,357.229 176.863,357.144 176.301 C 357.058 175.739,356.989 176.199,356.989 177.323 M51.756 185.688 C 51.755 190.186,51.864 194.870,52.000 196.097 C 52.136 197.323,52.191 193.894,52.124 188.476 C 52.056 183.058,51.947 178.374,51.880 178.067 C 51.814 177.760,51.758 181.190,51.756 185.688 M42.878 186.059 C 42.880 187.695,42.945 188.318,43.024 187.444 C 43.102 186.569,43.101 185.231,43.021 184.470 C 42.941 183.708,42.877 184.424,42.878 186.059 M43.242 195.167 C 43.242 196.496,43.309 197.040,43.392 196.375 C 43.474 195.711,43.474 194.624,43.392 193.959 C 43.309 193.295,43.242 193.838,43.242 195.167 M356.993 194.981 C 356.995 196.208,357.064 196.665,357.147 195.997 C 357.229 195.329,357.228 194.325,357.143 193.767 C 357.058 193.208,356.990 193.755,356.993 194.981 M155.822 194.626 C 155.200 195.993,155.318 196.284,155.992 195.041 C 156.306 194.461,156.494 193.917,156.409 193.832 C 156.324 193.747,156.060 194.104,155.822 194.626 M234.735 197.119 L 233.643 198.327 234.851 197.235 C 235.516 196.635,236.059 196.091,236.059 196.027 C 236.059 195.740,235.753 195.993,234.735 197.119 M43.588 200.186 C 43.592 201.004,43.668 201.295,43.757 200.832 C 43.846 200.370,43.843 199.701,43.750 199.345 C 43.657 198.990,43.584 199.368,43.588 200.186 M226.191 205.669 L 224.721 207.249 226.301 205.780 C 227.770 204.413,228.052 204.089,227.771 204.089 C 227.710 204.089,226.999 204.800,226.191 205.669 M223.668 207.683 C 223.532 207.819,223.420 208.070,223.420 208.240 C 223.420 208.411,247.635 208.509,277.230 208.459 L 331.041 208.367 277.395 208.271 C 241.872 208.208,223.827 208.051,223.978 207.805 C 224.238 207.386,224.042 207.308,223.668 207.683 M138.087 222.026 L 136.617 223.606 138.197 222.136 C 139.666 220.770,139.948 220.446,139.667 220.446 C 139.606 220.446,138.895 221.157,138.087 222.026 M132.139 227.974 L 130.669 229.554 132.249 228.084 C 133.718 226.718,134.000 226.394,133.719 226.394 C 133.658 226.394,132.947 227.105,132.139 227.974 M106.970 244.822 C 105.581 245.576,105.665 245.890,107.063 245.167 C 107.677 244.850,108.178 244.511,108.178 244.414 C 108.178 244.175,108.138 244.189,106.970 244.822 M81.227 254.647 C 80.758 254.848,80.689 254.966,81.041 254.966 C 81.348 254.966,81.933 254.823,82.342 254.647 C 82.811 254.445,82.879 254.327,82.528 254.327 C 82.221 254.327,81.636 254.471,81.227 254.647 M317.263 289.684 L 316.171 290.892 317.379 289.800 C 318.044 289.200,318.587 288.656,318.587 288.592 C 318.587 288.305,318.281 288.558,317.263 289.684 M85.502 292.667 C 85.502 292.724,86.798 294.020,88.383 295.548 L 91.264 298.327 88.485 295.446 C 85.904 292.770,85.502 292.395,85.502 292.667 M311.700 295.632 L 309.108 298.327 311.803 295.735 C 314.306 293.327,314.668 292.937,314.395 292.937 C 314.339 292.937,313.126 294.150,311.700 295.632 M305.739 301.208 L 304.647 302.416 305.855 301.325 C 306.981 300.307,307.234 300.000,306.947 300.000 C 306.883 300.000,306.339 300.544,305.739 301.208 M192.663 341.531 C 193.228 341.616,194.065 341.614,194.522 341.526 C 194.979 341.437,194.517 341.367,193.494 341.370 C 192.472 341.373,192.098 341.445,192.663 341.531 M205.855 341.526 C 206.315 341.615,207.068 341.615,207.528 341.526 C 207.988 341.438,207.612 341.365,206.691 341.365 C 205.771 341.365,205.395 341.438,205.855 341.526 " stroke="none" fill="#f08562" fill-rule="evenodd"></path><path id="path3" d="M192.286 39.676 C 193.053 39.756,194.308 39.756,195.074 39.676 C 195.841 39.596,195.214 39.530,193.680 39.530 C 192.147 39.530,191.520 39.596,192.286 39.676 M205.121 39.678 C 205.996 39.756,207.334 39.755,208.095 39.675 C 208.857 39.596,208.141 39.531,206.506 39.533 C 204.870 39.534,204.247 39.599,205.121 39.678 M215.490 45.954 C 215.456 45.977,213.103 46.107,210.263 46.242 C 205.794 46.455,202.276 46.789,193.494 47.836 C 192.472 47.958,190.214 48.374,188.476 48.759 C 186.738 49.145,184.480 49.623,183.457 49.822 C 181.625 50.177,178.323 50.999,172.862 52.459 C 171.329 52.869,169.698 53.297,169.238 53.411 C 168.778 53.525,168.401 53.761,168.401 53.935 C 168.401 54.109,168.151 54.155,167.844 54.038 C 166.584 53.555,167.442 54.251,169.942 55.742 C 172.923 57.520,174.033 57.776,175.651 57.055 C 176.264 56.782,177.735 56.351,178.920 56.097 C 180.105 55.844,181.161 55.497,181.266 55.327 C 181.371 55.158,181.855 55.019,182.342 55.019 C 182.829 55.019,183.317 54.874,183.426 54.697 C 183.536 54.520,184.256 54.278,185.028 54.159 C 185.800 54.040,188.857 53.448,191.822 52.842 C 194.786 52.237,198.048 51.648,199.071 51.534 C 200.093 51.419,202.268 51.079,203.903 50.778 C 205.539 50.478,208.550 50.121,210.595 49.986 C 212.639 49.851,214.981 49.678,215.799 49.601 C 225.041 48.734,249.469 49.954,257.020 51.660 C 258.972 52.101,259.776 51.911,258.323 51.352 C 257.835 51.164,255.977 50.405,254.195 49.665 C 252.413 48.926,250.071 48.242,248.991 48.146 C 247.910 48.050,244.433 47.645,241.264 47.246 C 234.210 46.357,216.221 45.455,215.490 45.954 M141.450 65.189 C 140.223 65.836,138.550 66.794,137.732 67.317 C 136.914 67.840,135.464 68.641,134.510 69.097 C 133.555 69.553,132.573 70.168,132.327 70.465 C 132.081 70.761,131.747 71.004,131.585 71.004 C 131.282 71.004,127.670 73.271,126.874 73.960 C 126.627 74.174,126.293 74.350,126.131 74.350 C 125.969 74.350,125.384 74.727,124.831 75.186 C 124.279 75.646,122.299 77.091,120.432 78.396 C 118.566 79.702,116.951 80.998,116.844 81.277 C 116.737 81.556,116.458 81.787,116.224 81.790 C 115.990 81.794,115.270 82.254,114.623 82.813 C 113.975 83.372,112.661 84.498,111.701 85.316 C 106.376 89.853,98.415 97.654,94.848 101.830 C 93.899 102.941,92.704 104.294,92.193 104.835 C 91.682 105.377,90.823 106.392,90.284 107.092 C 89.745 107.792,88.953 108.783,88.525 109.294 C 87.264 110.799,87.200 110.884,85.883 112.825 C 85.189 113.848,84.527 114.768,84.411 114.870 C 84.295 114.972,83.197 116.561,81.970 118.401 C 80.743 120.242,79.614 121.803,79.461 121.871 C 79.308 121.939,79.182 122.152,79.182 122.344 C 79.182 122.657,77.423 125.563,76.955 126.022 C 75.944 127.015,68.001 142.605,66.539 146.468 C 66.268 147.184,65.897 147.966,65.714 148.207 C 65.311 148.738,63.093 154.849,61.826 158.922 C 61.317 160.558,60.728 162.398,60.517 163.011 C 57.354 172.192,54.271 190.494,53.833 202.695 C 53.805 203.462,53.624 204.089,53.430 204.089 C 53.059 204.089,53.127 204.651,54.185 210.316 C 55.043 214.911,55.233 214.672,55.509 208.643 C 55.969 198.639,58.463 183.683,61.321 173.792 C 63.737 165.433,65.597 159.999,66.761 157.900 C 67.073 157.337,67.216 156.877,67.079 156.877 C 66.941 156.877,67.099 156.465,67.429 155.961 C 67.760 155.457,68.030 154.872,68.030 154.661 C 68.030 154.451,68.593 153.065,69.281 151.581 C 69.970 150.098,71.072 147.714,71.730 146.283 C 73.271 142.932,74.675 140.206,75.463 139.033 C 75.806 138.522,76.200 137.853,76.338 137.546 C 76.475 137.240,76.915 136.487,77.315 135.874 C 77.714 135.260,78.371 134.079,78.775 133.248 C 79.688 131.369,85.353 122.913,87.782 119.804 C 88.777 118.530,89.591 117.317,89.591 117.108 C 89.591 116.900,89.722 116.729,89.883 116.729 C 90.043 116.729,90.484 116.204,90.863 115.562 C 91.242 114.920,91.822 114.100,92.152 113.740 C 92.481 113.380,93.445 112.273,94.292 111.282 C 96.901 108.231,99.036 105.798,99.814 104.987 C 100.223 104.562,101.497 103.224,102.644 102.014 C 104.258 100.313,110.866 93.995,114.277 90.892 C 115.995 89.329,121.921 84.758,122.230 84.758 C 122.441 84.758,122.670 84.633,122.739 84.480 C 123.035 83.812,137.787 73.606,138.455 73.606 C 138.588 73.606,140.079 72.774,141.768 71.758 C 143.457 70.742,145.464 69.649,146.228 69.330 L 147.617 68.749 146.891 67.739 C 146.492 67.183,145.606 66.118,144.923 65.371 L 143.680 64.013 141.450 65.189 M167.794 138.848 C 167.795 140.892,167.857 141.681,167.932 140.601 C 168.008 139.521,168.007 137.848,167.931 136.883 C 167.854 135.919,167.793 136.803,167.794 138.848 M251.767 150.743 C 251.771 151.561,251.847 151.852,251.936 151.390 C 252.025 150.927,252.021 150.258,251.928 149.903 C 251.835 149.547,251.762 149.926,251.767 150.743 M251.759 156.134 C 251.759 156.849,251.836 157.142,251.929 156.784 C 252.023 156.427,252.023 155.841,251.929 155.483 C 251.836 155.125,251.759 155.418,251.759 156.134 M42.862 181.413 C 42.862 182.537,42.932 182.997,43.017 182.435 C 43.102 181.873,43.102 180.953,43.017 180.390 C 42.932 179.828,42.862 180.288,42.862 181.413 M357.343 182.342 C 357.347 183.160,357.423 183.451,357.512 182.988 C 357.601 182.526,357.598 181.857,357.504 181.501 C 357.411 181.146,357.339 181.524,357.343 182.342 M357.343 189.777 C 357.347 190.595,357.423 190.886,357.512 190.423 C 357.601 189.961,357.598 189.292,357.504 188.936 C 357.411 188.581,357.339 188.959,357.343 189.777 M42.866 190.892 C 42.868 192.119,42.938 192.576,43.020 191.908 C 43.103 191.240,43.101 190.236,43.017 189.677 C 42.932 189.119,42.864 189.665,42.866 190.892 M230.660 201.208 L 227.695 204.275 230.762 201.310 C 233.611 198.556,233.998 198.141,233.727 198.141 C 233.671 198.141,232.291 199.521,230.660 201.208 M52.874 201.859 C 52.874 202.574,52.951 202.867,53.044 202.509 C 53.138 202.151,53.138 201.566,53.044 201.208 C 52.951 200.850,52.874 201.143,52.874 201.859 M135.484 225.000 L 134.015 226.580 135.595 225.110 C 137.064 223.744,137.346 223.420,137.064 223.420 C 137.004 223.420,136.293 224.131,135.484 225.000 M91.078 298.258 C 91.078 298.322,91.622 298.865,92.286 299.466 L 93.494 300.558 92.403 299.349 C 91.385 298.223,91.078 297.970,91.078 298.258 M208.643 341.520 C 209.001 341.614,209.586 341.614,209.944 341.520 C 210.302 341.427,210.009 341.350,209.294 341.350 C 208.578 341.350,208.285 341.427,208.643 341.520 " stroke="none" fill="#f1a187" fill-rule="evenodd"></path><path id="path4" d="M197.322 30.388 C 199.019 30.457,201.696 30.457,203.270 30.388 C 204.845 30.318,203.457 30.262,200.186 30.262 C 196.914 30.262,195.626 30.319,197.322 30.388 M198.048 39.679 C 199.122 39.754,200.878 39.754,201.952 39.679 C 203.025 39.604,202.147 39.543,200.000 39.543 C 197.853 39.543,196.975 39.604,198.048 39.679 M209.479 40.148 C 209.709 40.520,208.806 40.592,205.164 40.493 C 198.764 40.320,190.130 40.563,192.007 40.865 C 193.194 41.055,192.706 41.162,189.591 41.394 C 185.628 41.688,178.055 42.861,176.022 43.494 C 175.409 43.686,173.318 44.196,171.375 44.628 C 169.433 45.060,167.593 45.473,167.286 45.546 C 166.980 45.618,164.972 46.202,162.825 46.844 C 160.678 47.486,158.629 48.035,158.271 48.063 C 157.914 48.092,157.621 48.246,157.621 48.407 C 157.621 48.567,157.336 48.699,156.989 48.699 C 156.027 48.699,156.695 49.157,160.781 51.299 C 162.825 52.371,166.046 54.076,167.937 55.088 C 171.624 57.061,172.727 57.275,169.331 55.358 C 167.406 54.271,166.608 53.564,167.844 54.038 C 168.151 54.155,168.401 54.109,168.401 53.935 C 168.401 53.761,168.778 53.525,169.238 53.411 C 169.698 53.297,171.329 52.869,172.862 52.459 C 178.323 50.999,181.625 50.177,183.457 49.822 C 184.480 49.623,186.756 49.141,188.516 48.750 C 190.276 48.360,192.451 47.955,193.349 47.850 C 214.331 45.415,227.121 45.347,244.028 47.579 C 250.567 48.443,250.831 48.391,246.757 47.041 C 236.916 43.783,225.418 41.173,222.533 41.543 C 221.508 41.675,221.164 41.606,221.351 41.304 C 221.540 40.997,221.015 40.931,219.450 41.066 C 218.072 41.185,217.624 41.143,218.216 40.951 C 218.929 40.719,218.453 40.587,216.171 40.386 C 214.535 40.241,212.295 40.023,211.193 39.901 C 209.631 39.727,209.253 39.782,209.479 40.148 M181.970 40.520 C 180.186 40.765,180.171 40.777,181.599 40.806 C 182.416 40.823,183.838 40.703,184.758 40.539 C 186.961 40.148,184.797 40.133,181.970 40.520 M214.963 40.783 C 214.503 40.871,213.750 40.871,213.290 40.783 C 212.830 40.694,213.206 40.622,214.126 40.622 C 215.046 40.622,215.423 40.694,214.963 40.783 M185.787 41.162 C 186.455 41.244,187.459 41.243,188.018 41.158 C 188.576 41.073,188.030 41.005,186.803 41.007 C 185.576 41.009,185.119 41.079,185.787 41.162 M172.305 42.007 C 171.276 42.269,171.262 42.294,172.119 42.330 C 172.630 42.351,173.299 42.206,173.606 42.007 C 174.239 41.599,173.912 41.599,172.305 42.007 M166.357 43.324 L 164.498 43.825 166.171 43.618 C 167.091 43.504,168.095 43.267,168.401 43.092 C 169.158 42.660,168.570 42.727,166.357 43.324 M160.409 44.810 C 158.937 45.319,158.935 45.322,160.223 45.110 C 160.939 44.992,161.775 44.753,162.082 44.578 C 162.900 44.112,162.110 44.221,160.409 44.810 M133.271 51.301 C 134.485 52.528,135.562 53.532,135.664 53.532 C 135.767 53.532,134.857 52.528,133.643 51.301 C 132.429 50.074,131.352 49.071,131.250 49.071 C 131.148 49.071,132.057 50.074,133.271 51.301 M135.130 58.061 C 133.699 58.900,130.942 60.419,129.003 61.435 C 127.064 62.452,125.057 63.610,124.542 64.009 C 124.027 64.409,121.884 65.871,119.779 67.259 C 117.674 68.647,115.540 70.141,115.036 70.579 C 114.533 71.017,113.955 71.375,113.752 71.375 C 113.549 71.375,113.383 71.543,113.383 71.747 C 113.383 71.952,113.174 72.119,112.918 72.119 C 112.663 72.120,111.952 72.558,111.338 73.094 C 110.725 73.629,109.055 75.009,107.626 76.160 C 101.567 81.043,92.043 90.484,86.431 97.169 C 85.613 98.143,84.750 99.152,84.513 99.410 C 84.276 99.668,83.550 100.744,82.900 101.801 C 82.250 102.857,81.440 103.930,81.101 104.184 C 80.761 104.439,80.258 105.084,79.983 105.619 C 79.708 106.153,79.112 106.989,78.660 107.477 C 78.208 107.965,77.808 108.532,77.772 108.736 C 77.736 108.941,77.076 109.926,76.307 110.926 C 74.805 112.876,73.593 114.856,71.730 118.401 C 71.085 119.628,70.382 120.847,70.167 121.109 C 69.618 121.781,67.819 125.086,66.684 127.509 C 64.928 131.261,63.134 135.114,62.445 136.617 C 62.070 137.435,61.577 138.815,61.351 139.684 C 61.124 140.553,60.777 141.264,60.580 141.264 C 60.384 141.264,60.243 141.389,60.267 141.543 C 60.411 142.457,60.174 143.136,59.793 142.901 C 59.502 142.721,59.426 142.877,59.558 143.381 C 59.668 143.801,59.453 144.516,59.067 145.019 C 58.689 145.509,58.377 146.287,58.373 146.747 C 58.368 147.207,58.189 147.584,57.976 147.584 C 57.738 147.584,57.667 148.126,57.792 148.978 L 57.996 150.372 57.448 149.071 L 56.899 147.770 57.099 149.077 C 57.272 150.207,57.033 151.493,55.618 157.063 C 55.514 157.472,55.498 156.887,55.581 155.762 L 55.733 153.717 55.206 155.948 C 54.563 158.672,54.551 158.839,55.019 158.550 C 55.223 158.424,55.390 158.581,55.390 158.900 C 55.390 159.219,55.181 159.438,54.926 159.387 C 54.596 159.321,54.481 159.835,54.531 161.152 C 54.581 162.479,54.521 162.745,54.321 162.082 C 53.974 160.932,53.080 167.086,53.410 168.349 C 53.525 168.789,53.439 169.366,53.219 169.631 C 52.158 170.910,51.765 196.788,52.758 199.998 C 52.979 200.712,53.160 201.925,53.160 202.693 C 53.160 204.512,53.768 204.515,53.833 202.695 C 54.271 190.494,57.354 172.192,60.517 163.011 C 60.728 162.398,61.317 160.558,61.826 158.922 C 63.093 154.849,65.311 148.738,65.714 148.207 C 65.897 147.966,66.268 147.184,66.539 146.468 C 68.001 142.605,75.944 127.015,76.955 126.022 C 77.423 125.563,79.182 122.657,79.182 122.344 C 79.182 122.152,79.308 121.939,79.461 121.871 C 79.614 121.803,80.743 120.242,81.970 118.401 C 83.197 116.561,84.295 114.972,84.411 114.870 C 84.527 114.768,85.189 113.848,85.883 112.825 C 87.200 110.884,87.264 110.799,88.525 109.294 C 88.953 108.783,89.745 107.792,90.284 107.092 C 90.823 106.392,91.682 105.377,92.193 104.835 C 92.704 104.294,93.899 102.941,94.848 101.830 C 98.415 97.654,106.376 89.853,111.701 85.316 C 112.661 84.498,113.975 83.372,114.623 82.813 C 115.270 82.254,115.990 81.794,116.224 81.790 C 116.458 81.787,116.737 81.556,116.844 81.277 C 116.951 80.998,118.566 79.702,120.432 78.396 C 122.299 77.091,124.279 75.646,124.831 75.186 C 125.384 74.727,125.969 74.350,126.131 74.350 C 126.293 74.350,126.627 74.174,126.874 73.960 C 127.670 73.271,131.282 71.004,131.585 71.004 C 131.747 71.004,132.081 70.761,132.327 70.465 C 132.573 70.168,133.555 69.553,134.510 69.097 C 135.464 68.641,136.914 67.840,137.732 67.318 C 138.550 66.795,140.259 65.835,141.529 65.184 L 143.839 63.999 145.384 65.736 C 147.359 67.956,146.866 67.173,143.784 63.197 C 142.437 61.459,140.524 59.249,139.534 58.286 L 137.732 56.534 135.130 58.061 M87.529 77.045 L 86.059 78.625 87.639 77.155 C 88.508 76.347,89.219 75.636,89.219 75.575 C 89.219 75.294,88.896 75.575,87.529 77.045 M97.944 80.019 L 95.725 82.342 98.048 80.123 C 100.207 78.062,100.542 77.695,100.267 77.695 C 100.210 77.695,99.164 78.741,97.944 80.019 M315.985 80.785 C 315.985 80.849,316.529 81.393,317.193 81.994 L 318.401 83.086 317.310 81.877 C 316.292 80.751,315.985 80.498,315.985 80.785 M91.250 86.710 L 89.405 88.662 91.357 86.817 C 93.170 85.103,93.479 84.758,93.202 84.758 C 93.143 84.758,92.265 85.637,91.250 86.710 M219.703 90.809 C 219.703 90.865,220.999 92.161,222.584 93.690 L 225.465 96.468 222.686 93.587 C 220.105 90.912,219.703 90.537,219.703 90.809 M84.758 94.052 C 83.902 95.074,83.286 95.911,83.388 95.911 C 83.490 95.911,84.274 95.074,85.130 94.052 C 85.986 93.030,86.603 92.193,86.500 92.193 C 86.398 92.193,85.614 93.030,84.758 94.052 M69.331 117.100 C 69.014 117.714,68.838 118.216,68.940 118.216 C 69.042 118.216,69.385 117.714,69.703 117.100 C 70.020 116.487,70.196 115.985,70.093 115.985 C 69.991 115.985,69.648 116.487,69.331 117.100 M63.629 128.826 C 63.006 130.193,63.125 130.485,63.799 129.242 C 64.113 128.662,64.301 128.117,64.216 128.032 C 64.131 127.947,63.867 128.305,63.629 128.826 M60.452 137.032 C 60.123 137.998,59.918 138.852,59.996 138.931 C 60.075 139.009,60.409 138.284,60.738 137.318 C 61.067 136.352,61.272 135.497,61.193 135.419 C 61.115 135.340,60.781 136.066,60.452 137.032 M59.182 140.781 C 58.632 142.573,58.898 142.839,59.480 141.078 C 59.725 140.335,59.853 139.655,59.765 139.566 C 59.676 139.478,59.414 140.025,59.182 140.781 M58.065 144.285 C 57.851 145.128,57.813 145.672,57.981 145.493 C 58.328 145.123,58.885 142.751,58.625 142.751 C 58.531 142.751,58.280 143.441,58.065 144.285 M56.549 149.877 C 56.525 150.218,56.409 150.803,56.292 151.178 C 56.089 151.823,56.100 151.824,56.503 151.196 C 56.736 150.832,56.852 150.247,56.760 149.895 C 56.608 149.320,56.588 149.318,56.549 149.877 M251.774 153.532 C 251.774 154.452,251.847 154.828,251.935 154.368 C 252.024 153.908,252.024 153.155,251.935 152.695 C 251.847 152.235,251.774 152.612,251.774 153.532 M251.387 158.736 C 251.387 159.452,251.464 159.744,251.557 159.387 C 251.651 159.029,251.651 158.443,251.557 158.086 C 251.464 157.728,251.387 158.020,251.387 158.736 M42.845 178.253 C 42.849 179.071,42.925 179.361,43.014 178.899 C 43.103 178.437,43.099 177.767,43.006 177.412 C 42.913 177.057,42.841 177.435,42.845 178.253 M42.837 194.052 C 42.837 194.768,42.914 195.060,43.007 194.703 C 43.101 194.345,43.101 193.759,43.007 193.401 C 42.914 193.044,42.837 193.336,42.837 194.052 M234.363 197.119 L 233.271 198.327 234.480 197.235 C 235.144 196.635,235.688 196.091,235.688 196.027 C 235.688 195.740,235.381 195.993,234.363 197.119 M225.813 205.669 L 224.721 206.877 225.929 205.785 C 226.594 205.185,227.138 204.641,227.138 204.577 C 227.138 204.290,226.831 204.543,225.813 205.669 M138.458 222.026 L 136.989 223.606 138.569 222.136 C 140.038 220.770,140.320 220.446,140.038 220.446 C 139.978 220.446,139.267 221.157,138.458 222.026 M132.876 227.602 L 131.784 228.810 132.993 227.719 C 134.119 226.701,134.372 226.394,134.084 226.394 C 134.020 226.394,133.477 226.938,132.876 227.602 M81.413 288.592 C 81.413 288.656,81.956 289.200,82.621 289.800 L 83.829 290.892 82.737 289.684 C 81.719 288.558,81.413 288.305,81.413 288.592 M88.104 295.725 C 89.421 297.054,90.583 298.141,90.685 298.141 C 90.787 298.141,89.793 297.054,88.476 295.725 C 87.159 294.396,85.997 293.309,85.895 293.309 C 85.793 293.309,86.787 294.396,88.104 295.725 M312.268 295.353 C 311.365 296.273,310.710 297.026,310.812 297.026 C 310.914 297.026,311.736 296.273,312.639 295.353 C 313.542 294.433,314.198 293.680,314.095 293.680 C 313.993 293.680,313.171 294.433,312.268 295.353 M197.491 341.912 C 199.075 341.982,201.668 341.982,203.253 341.912 C 204.837 341.842,203.541 341.785,200.372 341.785 C 197.203 341.785,195.906 341.842,197.491 341.912 " stroke="none" fill="#f8bfa5" fill-rule="evenodd"></path></g></svg>