<?xml version="1.0" standalone="no"?>
<!DOCTYPE svg PUBLIC "-//W3C//DTD SVG 20010904//EN"
 "http://www.w3.org/TR/2001/REC-SVG-20010904/DTD/svg10.dtd">
<svg version="1.0" xmlns="http://www.w3.org/2000/svg"
 width="300.000000pt" height="299.000000pt" viewBox="0 0 300.000000 299.000000"
 preserveAspectRatio="xMidYMid meet">

<g transform="translate(0.000000,299.000000) scale(0.100000,-0.100000)"
fill="#000000" stroke="none">
<path d="M0 1495 l0 -1495 1500 0 1500 0 0 1495 0 1495 -1500 0 -1500 0 0
-1495z m1674 959 c368 -70 671 -368 753 -741 23 -105 23 -301 0 -406 -38 -174
-122 -330 -247 -461 -90 -95 -168 -152 -281 -206 -238 -114 -521 -125 -769
-29 -309 119 -548 413 -601 739 -80 497 231 972 718 1095 138 35 273 38 427 9z"/>
<path d="M1352 2409 c-67 -10 -231 -60 -270 -82 -22 -13 -20 -15 50 -42 354
-137 573 -334 607 -545 17 -108 -21 -229 -101 -316 l-43 -47 55 6 c127 14 570
40 577 34 3 -4 4 -9 1 -12 -3 -3 -336 -100 -739 -216 -404 -116 -736 -212
-738 -215 -2 -2 18 -29 45 -60 109 -128 289 -239 464 -286 109 -29 317 -31
424 -5 309 77 557 300 657 590 197 575 -214 1178 -821 1202 -58 2 -133 0 -168
-6z"/>
<path d="M928 2229 c-191 -143 -315 -362 -349 -615 -13 -103 -7 -205 22 -324
24 -98 90 -247 114 -256 20 -8 118 27 210 74 95 49 211 164 253 252 76 156 97
376 53 545 -37 140 -116 273 -207 348 l-30 26 -66 -50z"/>
</g>
</svg>
