<?xml version="1.0" standalone="no"?>
<!DOCTYPE svg PUBLIC "-//W3C//DTD SVG 20010904//EN"
 "http://www.w3.org/TR/2001/REC-SVG-20010904/DTD/svg10.dtd">
<svg version="1.0" xmlns="http://www.w3.org/2000/svg"
 width="1000.000000pt" height="929.000000pt" viewBox="0 0 1000.000000 929.000000"
 preserveAspectRatio="xMidYMid meet">

<g transform="translate(0.000000,929.000000) scale(0.100000,-0.100000)"
fill="#ffffff" stroke="white">
<path d="M4805 8524 c-303 -18 -690 -86 -960 -170 -111 -35 -308 -105 -318
-114 -4 -4 56 -34 134 -68 121 -52 144 -59 167 -51 48 19 195 60 317 89 621
147 1297 129 1905 -50 204 -60 495 -175 581 -230 l34 -21 -30 5 c-196 34 -790
40 -1038 11 -17 -3 -52 -7 -77 -10 -25 -3 -70 -8 -100 -10 -52 -5 -211 -32
-330 -57 -30 -6 -62 -12 -70 -14 -8 -1 -25 -5 -37 -8 -54 -14 -69 -18 -88 -21
-11 -2 -45 -11 -75 -20 -68 -20 -65 -19 -120 -34 -25 -6 -53 -16 -63 -22 -10
-5 -23 -7 -29 -3 -7 5 -8 3 -3 -6 5 -9 1 -10 -16 -6 -21 6 -20 5 4 -9 55 -31
399 -266 494 -337 264 -196 550 -464 712 -668 255 -319 403 -618 472 -950 34
-165 35 -435 1 -595 -59 -273 -156 -482 -329 -703 -68 -87 -211 -237 -300
-314 l-52 -45 1347 -7 c1295 -6 1348 -7 1365 -25 23 -22 16 -55 -16 -75 -12
-8 -112 -33 -222 -56 -110 -23 -263 -55 -340 -71 -77 -17 -169 -36 -205 -44
-36 -7 -164 -34 -285 -60 -121 -25 -281 -59 -355 -75 -507 -107 -1026 -216
-1145 -241 -77 -16 -183 -39 -235 -50 -52 -11 -135 -28 -185 -38 -49 -11 -297
-63 -550 -116 -253 -53 -512 -107 -575 -121 -63 -13 -158 -32 -210 -43 -52
-12 -158 -34 -235 -50 -77 -16 -336 -71 -575 -121 -239 -50 -529 -111 -645
-135 -115 -25 -336 -71 -490 -103 -154 -33 -299 -63 -323 -67 -52 -8 -52 -7
24 -118 403 -581 907 -1018 1519 -1317 390 -190 779 -311 1175 -364 268 -37
328 -41 570 -41 215 0 313 6 510 32 631 81 1192 293 1712 645 862 583 1447
1469 1642 2483 23 118 32 180 51 345 21 174 21 586 0 760 -19 165 -28 227 -51
345 -261 1357 -1226 2473 -2534 2933 -296 104 -519 156 -844 197 -196 24 -517
38 -681 29z"/>
<path d="M3140 8063 c-817 -445 -1439 -1132 -1777 -1963 -418 -1027 -378
-2173 110 -3165 32 -66 60 -121 62 -123 7 -8 276 51 435 94 910 249 1519 703
1865 1389 84 167 94 189 151 352 82 231 133 445 176 728 19 130 22 190 23 455
0 267 -3 324 -23 460 -39 262 -103 513 -189 735 -44 113 -151 331 -171 348
-13 10 -15 9 -9 -5 4 -11 2 -15 -6 -12 -15 5 -284 -152 -334 -196 -7 -5 -15
-10 -18 -10 -9 0 -79 -53 -83 -62 -2 -5 -8 -8 -13 -8 -6 0 -15 -5 -22 -10 -7
-6 -59 -47 -117 -92 -58 -44 -112 -87 -120 -94 -8 -8 -37 -32 -65 -55 -164
-135 -415 -386 -529 -529 -20 -25 -42 -52 -49 -60 -59 -65 -191 -242 -261
-350 -30 -47 -63 -96 -73 -110 -10 -14 -18 -28 -18 -32 0 -4 -8 -17 -17 -28
-10 -11 -18 -23 -18 -26 0 -3 -8 -18 -19 -32 -49 -71 -210 -390 -266 -527 -20
-49 -40 -99 -44 -110 -5 -11 -16 -38 -26 -60 -9 -22 -19 -47 -21 -55 -1 -8
-14 -46 -27 -85 -91 -261 -165 -576 -202 -855 -9 -69 -20 -147 -24 -175 l-7
-50 -12 40 c-17 56 -58 260 -77 385 -22 140 -31 598 -16 786 34 435 165 904
361 1294 351 701 911 1274 1592 1630 l127 66 -77 77 c-43 42 -84 77 -92 76 -8
0 -44 -16 -80 -36z"/>
</g>
</svg>
